{
  "source": "C:\\Users\\Peter\\Desktop\\stuff\\MIUN\\quantitative_research\\video_compression\\videos\\BVI-HD\\BVI-HD_CDVL_videos\\ORIG\\BricksLeaves_1920x1080_60fps.mp4",
  "output": "C:\\Users\\Peter\\Desktop\\stuff\\MIUN\\quantitative_research\\video_compression\\compressed_videos\\BVI-HD\\av1\\1\\BricksLeaves_1920x1080_60fps_av1.mkv",
  "codec": "av1",
  "ok": "Input #0, mov,mp4,m4a,3gp,3g2,mj2, from 'C:\\Users\\Peter\\Desktop\\stuff\\MIUN\\quantitative_research\\video_compression\\videos\\BVI-HD\\BVI-HD_CDVL_videos\\ORIG\\BricksLeaves_1920x1080_60fps.mp4':\n  Metadata:\n    major_brand     : isom\n    minor_version   : 512\n    compatible_brands: isomiso2avc1mp41\n    encoder         : Lavf54.28.101\n  Duration: 00:00:05.00, start: 0.000000, bitrate: 524627 kb/s\n  Stream #0:0[0x1](und): Video: h264 (High 4:4:4 Predictive) (avc1 / 0x31637661), yuv420p(progressive), 1920x1080, 524622 kb/s, 60 fps, 60 tbr, 60 tbn (default)\n    Metadata:\n      handler_name    : VideoHandler\n      vendor_id       : [0][0][0][0]\n[out#0/matroska @ 0000014b503c90c0] Codec AVOption b:a (set bitrate (in bits/s)) has not been used for any stream. The most likely reason is either wrong type (e.g. a video option with no video streams) or that it is a private option of some decoder which was not actually used for any stream.\nStream mapping:\n  Stream #0:0 -> #0:0 (h264 (native) -> av1 (libsvtav1))\nPress [q] to stop, [?] for help\nSvt[info]: -------------------------------------------\nSvt[info]: SVT [version]:\tSVT-AV1 Encoder Lib v3.1.0-19-g6ecfe8ec\nSvt[info]: SVT [build]  :\tGCC 15.2.0\t 64 bit\nSvt[info]: LIB Build date: Aug 17 2025 11:37:13\nSvt[info]: -------------------------------------------\nSvt[info]: Level of Parallelism: 5\nSvt[info]: Number of PPCS 93\nSvt[info]: [asm level on system : up to avx2]\nSvt[info]: [asm level selected : up to avx2]\nSvt[info]: -------------------------------------------\nSvt[info]: SVT [config]: main profile\ttier (auto)\tlevel (auto)\nSvt[info]: SVT [config]: width / height / fps numerator / fps denominator \t\t: 1920 / 1080 / 60 / 1\nSvt[info]: SVT [config]: bit-depth / color format \t\t\t\t\t: 8 / YUV420\nSvt[info]: SVT [config]: preset / tune / pred struct \t\t\t\t\t: 4 / PSNR / random access\nSvt[info]: SVT [config]: gop size / mini-gop size / key-frame type \t\t\t: 321 / 16 / key frame\nSvt[info]: SVT [config]: BRC mode / target bitrate (kbps)\t\t\t\t: VBR / 1000 \nSvt[info]: SVT [config]: AQ mode / Variance Boost \t\t\t\t\t: 2 / 0\nSvt[info]: SVT [config]: sharpness / luminance-based QP bias \t\t\t\t: 0 / 0\nSvt[info]: SVT [config]: QP scale compress strength \t\t\t\t\t: 0\nSvt[info]: -------------------------------------------\nOutput #0, matroska, to 'C:\\Users\\Peter\\Desktop\\stuff\\MIUN\\quantitative_research\\video_compression\\compressed_videos\\BVI-HD\\av1\\1\\BricksLeaves_1920x1080_60fps_av1.mkv':\n  Metadata:\n    major_brand     : isom\n    minor_version   : 512\n    compatible_brands: isomiso2avc1mp41\n    encoder         : Lavf62.3.100\n  Stream #0:0(und): Video: av1 (AV01 / 0x31305641), yuv420p(tv, progressive), 1920x1080, q=2-31, 1000 kb/s, 60 fps, 1k tbn (default)\n    Metadata:\n      encoder         : Lavc62.11.100 libsvtav1\n      handler_name    : VideoHandler\n      vendor_id       : [0][0][0][0]\n    Side data:\n      cpb: bitrate max/min/avg: 0/0/1000000 buffer size: 1000000 vbv_delay: N/A\nframe=    0 fps=0.0 q=0.0 size=       0KiB time=N/A bitrate=N/A speed=N/A elapsed=0:00:01.02    \nframe=    0 fps=0.0 q=0.0 size=       0KiB time=N/A bitrate=N/A speed=N/A elapsed=0:00:01.59    \nframe=    0 fps=0.0 q=0.0 size=       0KiB time=N/A bitrate=N/A speed=N/A elapsed=0:00:02.14    \nframe=    0 fps=0.0 q=0.0 size=       0KiB time=N/A bitrate=N/A speed=N/A elapsed=0:00:02.69    \nframe=    0 fps=0.0 q=0.0 size=       0KiB time=N/A bitrate=N/A speed=N/A elapsed=0:00:03.22    \nframe=    0 fps=0.0 q=0.0 size=       0KiB time=N/A bitrate=N/A speed=N/A elapsed=0:00:03.75    \nframe=    0 fps=0.0 q=0.0 size=       0KiB time=N/A bitrate=N/A speed=N/A elapsed=0:00:04.27    \nframe=    0 fps=0.0 q=0.0 size=       0KiB time=N/A bitrate=N/A speed=N/A elapsed=0:00:04.78    \nframe=    0 fps=0.0 q=0.0 size=       0KiB time=N/A bitrate=N/A speed=N/A elapsed=0:00:05.30    \nframe=    0 fps=0.0 q=0.0 size=       0KiB time=N/A bitrate=N/A speed=N/A elapsed=0:00:05.81    \nframe=    0 fps=0.0 q=0.0 size=       0KiB time=N/A bitrate=N/A speed=N/A elapsed=0:00:06.33    \nframe=    0 fps=0.0 q=0.0 size=       0KiB time=N/A bitrate=N/A speed=N/A elapsed=0:00:06.85    \nframe=    0 fps=0.0 q=0.0 size=       0KiB time=N/A bitrate=N/A speed=N/A elapsed=0:00:07.36    \nframe=    0 fps=0.0 q=0.0 size=       0KiB time=N/A bitrate=N/A speed=N/A elapsed=0:00:07.87    \nframe=    0 fps=0.0 q=0.0 size=       0KiB time=N/A bitrate=N/A speed=N/A elapsed=0:00:08.40    \nframe=    0 fps=0.0 q=0.0 size=       0KiB time=N/A bitrate=N/A speed=N/A elapsed=0:00:08.92    \nframe=    0 fps=0.0 q=0.0 size=       0KiB time=N/A bitrate=N/A speed=N/A elapsed=0:00:09.52    \nframe=    0 fps=0.0 q=0.0 size=       0KiB time=N/A bitrate=N/A speed=N/A elapsed=0:00:10.10    \nframe=    0 fps=0.0 q=0.0 size=       0KiB time=N/A bitrate=N/A speed=N/A elapsed=0:00:10.66    \nframe=    0 fps=0.0 q=0.0 size=       0KiB time=N/A bitrate=N/A speed=N/A elapsed=0:00:11.24    \nframe=    0 fps=0.0 q=0.0 size=       0KiB time=N/A bitrate=N/A speed=N/A elapsed=0:00:11.88    \nframe=    0 fps=0.0 q=0.0 size=       0KiB time=N/A bitrate=N/A speed=N/A elapsed=0:00:12.54    \nframe=    0 fps=0.0 q=0.0 size=       0KiB time=N/A bitrate=N/A speed=N/A elapsed=0:00:13.13    \nframe=    0 fps=0.0 q=0.0 size=       0KiB time=N/A bitrate=N/A speed=N/A elapsed=0:00:13.67    \nframe=    0 fps=0.0 q=0.0 size=       0KiB time=N/A bitrate=N/A speed=N/A elapsed=0:00:14.25    \nframe=    1 fps=0.1 q=37.0 size=       1KiB time=00:00:00.00 bitrate=N/A speed=   0x elapsed=0:00:14.79    \nframe=    1 fps=0.1 q=37.0 size=       1KiB time=00:00:00.00 bitrate=N/A speed=   0x elapsed=0:00:15.32    \nframe=   11 fps=0.7 q=61.0 size=       1KiB time=00:00:00.15 bitrate=  38.0kbits/s speed=0.00945x elapsed=0:00:15.87    \nframe=   23 fps=1.4 q=61.0 size=       1KiB time=00:00:00.36 bitrate=  15.5kbits/s speed=0.0223x elapsed=0:00:16.47    \nframe=   35 fps=2.0 q=63.0 size=       1KiB time=00:00:00.56 bitrate=  10.1kbits/s speed=0.0331x elapsed=0:00:17.10    \nframe=   47 fps=2.7 q=62.0 size=       1KiB time=00:00:00.75 bitrate=   7.6kbits/s speed=0.0425x elapsed=0:00:17.65    \nframe=   59 fps=3.2 q=62.0 size=       1KiB time=00:00:00.96 bitrate=   5.9kbits/s speed=0.0531x elapsed=0:00:18.20    \nframe=   71 fps=3.8 q=63.0 size=       1KiB time=00:00:01.16 bitrate=   4.9kbits/s speed=0.0623x elapsed=0:00:18.72    \nframe=   84 fps=4.4 q=63.0 size=       1KiB time=00:00:01.38 bitrate=   4.1kbits/s speed=0.0719x elapsed=0:00:19.24    \nframe=   96 fps=4.9 q=63.0 size=       1KiB time=00:00:01.56 bitrate=   3.6kbits/s speed=0.0793x elapsed=0:00:19.75    \nframe=  111 fps=5.5 q=62.0 size=       1KiB time=00:00:01.78 bitrate=   3.2kbits/s speed=0.0878x elapsed=0:00:20.30    \nframe=  124 fps=5.9 q=63.0 size=       1KiB time=00:00:02.05 bitrate=   2.8kbits/s speed=0.0981x elapsed=0:00:20.90    \nframe=  139 fps=6.5 q=63.0 size=       1KiB time=00:00:02.30 bitrate=   2.5kbits/s speed=0.107x elapsed=0:00:21.42    \nframe=  152 fps=6.9 q=63.0 size=       1KiB time=00:00:02.51 bitrate=   2.3kbits/s speed=0.115x elapsed=0:00:21.95    \nframe=  165 fps=7.3 q=62.0 size=       1KiB time=00:00:02.73 bitrate=   2.1kbits/s speed=0.122x elapsed=0:00:22.47    \nframe=  177 fps=7.7 q=56.0 size=       1KiB time=00:00:02.93 bitrate=   1.9kbits/s speed=0.128x elapsed=0:00:22.98    \nframe=  192 fps=8.2 q=63.0 size=       1KiB time=00:00:03.18 bitrate=   1.8kbits/s speed=0.135x elapsed=0:00:23.50    \nframe=  205 fps=8.5 q=62.0 size=       1KiB time=00:00:03.40 bitrate=   1.7kbits/s speed=0.142x elapsed=0:00:24.01    \nframe=  221 fps=9.0 q=62.0 size=       1KiB time=00:00:03.66 bitrate=   1.6kbits/s speed=0.149x elapsed=0:00:24.53    \nframe=  237 fps=9.5 q=62.0 size=       1KiB time=00:00:03.93 bitrate=   1.4kbits/s speed=0.157x elapsed=0:00:25.05    \nframe=  249 fps=9.7 q=62.0 size=       1KiB time=00:00:04.13 bitrate=   1.4kbits/s speed=0.162x elapsed=0:00:25.56    \nframe=  259 fps=9.9 q=63.0 size=       1KiB time=00:00:04.30 bitrate=   1.3kbits/s speed=0.165x elapsed=0:00:26.08    \nframe=  267 fps= 10 q=63.0 size=       1KiB time=00:00:04.43 bitrate=   1.3kbits/s speed=0.167x elapsed=0:00:26.61    \nframe=  279 fps= 10 q=63.0 size=       1KiB time=00:00:04.63 bitrate=   1.2kbits/s speed=0.171x elapsed=0:00:27.13    \nframe=  293 fps= 11 q=63.0 size=       1KiB time=00:00:04.86 bitrate=   1.2kbits/s speed=0.176x elapsed=0:00:27.65    \n[out#0/matroska @ 0000014b503c90c0] video:512KiB audio:0KiB subtitle:0KiB other streams:0KiB global headers:0KiB muxing overhead: 0.402752%\nframe=  300 fps= 11 q=63.0 Lsize=     514KiB time=00:00:04.98 bitrate= 844.4kbits/s speed=0.18x elapsed=0:00:27.72    \n",
  "seconds": 28.266506671905518,
  "probe_out": {}
}